<svg width="282" height="113" viewBox="0 0 282 113" fill="none" xmlns="http://www.w3.org/2000/svg">
<path d="M79.3091 30.494C74.4762 33.9952 70.5476 38.5357 67.8323 43.7583C72.3379 39.9343 76.2089 35.4604 79.3091 30.494ZM136.897 23.707H137.187C139.188 21.1861 140.958 18.5005 142.476 15.6809L142.243 15.5119L141.371 16.751C141.371 16.1315 141.371 15.878 141.371 15.5964H138.466C138.669 16.0188 139.076 16.4412 138.96 16.6102C138.85 16.7645 138.708 16.8945 138.543 16.9916C138.378 17.0887 138.193 17.1507 138.001 17.1735C137.187 17.1735 136.577 17.5396 136.548 18.4126C136.548 19.8207 136.548 21.2287 136.548 22.665C136.577 23 136.645 23.3308 136.752 23.6506L136.897 23.707ZM137.158 14.5544L138.989 14.8079H140.732C143.231 14.9487 142.592 15.4274 143.638 13.09C143.974 12.4217 144.162 11.6926 144.19 10.9496C144.213 9.93606 144.056 8.92621 143.725 7.96447C143.652 7.73298 143.521 7.52306 143.342 7.3541C143.163 7.18515 142.943 7.06265 142.703 6.99804C142.462 6.93343 142.209 6.92874 141.966 6.98446C141.723 7.04018 141.498 7.15454 141.313 7.3168C140.161 8.17723 139.205 9.25939 138.505 10.4952C137.805 11.7311 137.376 13.0939 137.246 14.498L137.158 14.5544ZM118.185 63.7813C118.177 64.5424 118.384 65.2913 118.783 65.9466C119.183 66.602 119.76 67.1387 120.452 67.4987C121.131 67.874 121.918 68.0248 122.694 67.9282C123.47 67.8317 124.192 67.4931 124.752 66.9636C126.239 65.8873 127.586 64.6389 128.761 63.2462C132.016 59.1627 135.125 54.9948 138.263 50.8268C138.373 50.7196 138.461 50.5922 138.521 50.4521C138.58 50.312 138.611 50.1618 138.611 50.0102C138.03 48.1515 137.449 46.2928 136.781 44.3778C135.822 41.7869 134.776 39.2523 133.875 36.6614C133.701 36.2108 133.468 35.7321 133.265 35.2815L132.132 36.3799L131.987 36.5488C130.563 38.323 129.081 40.0972 127.715 41.8714C127.134 42.6036 126.582 43.3921 126.03 44.1525C124.925 45.3047 124.189 46.7427 123.909 48.2923C123.909 48.5457 123.59 48.7992 123.386 49.0245C123.183 49.2498 122.834 49.5033 122.689 49.813C121.723 51.5396 120.925 53.3497 120.306 55.2201C119.267 57.9412 118.593 60.7807 118.301 63.6686L118.185 63.7813ZM140.819 54.7132C139.512 56.3747 138.35 57.8392 137.246 59.3318C136.141 60.8243 135.386 62.1479 134.34 63.4434C131.434 66.7946 128.529 70.4838 124.229 72.3143C122.453 73.246 120.42 73.6107 118.418 73.3563C116.7 73.1994 115.108 72.4123 113.969 71.1561C112.829 69.8998 112.228 68.2692 112.287 66.5975C112.263 63.9326 112.715 61.2837 113.624 58.7685C114.408 56.7127 115.425 54.7414 116.326 52.7137C120.381 45.1928 125.335 38.1604 131.086 31.7613C131.502 31.3141 131.797 30.7738 131.944 30.1888C132.091 29.6038 132.086 28.9925 131.928 28.41C131.543 26.554 131.32 24.6699 131.26 22.7776C131.26 20.919 131.26 19.0321 131.26 16.9481C130.882 16.6102 130.418 16.5539 129.953 17.3142C129.846 17.423 129.713 17.5034 129.566 17.5478C129.418 17.5922 129.261 17.599 129.11 17.5677C127.803 17.1452 126.524 16.6384 125.217 16.1878C125.084 16.1752 124.95 16.1914 124.824 16.2352C124.698 16.279 124.584 16.3494 124.49 16.4412C123.6 17.099 122.564 17.546 121.465 17.7465C120.365 17.947 119.232 17.8954 118.156 17.5959C117.577 17.5249 116.992 17.5249 116.413 17.5959C114.989 17.5959 114.989 17.5959 114.466 17.0045C113.634 17.3491 112.78 17.6407 111.909 17.8775C111.735 17.8775 111.444 17.455 111.386 17.3987C110.718 17.7206 110.003 17.9391 109.265 18.0465C106.579 17.9475 103.89 18.2032 101.275 18.8068H101.072C98.8344 19.0603 98.7763 19.0321 98.1661 21.2006C96.8005 26.0163 95.4639 30.832 94.2145 35.6758C93.43 38.7736 92.7908 41.9277 92.1806 45.0537C91.2485 48.957 90.8481 52.962 90.9894 56.9662C90.9894 57.2478 90.9894 57.5294 90.9894 57.811C90.9894 58.0926 90.9894 57.811 91.2218 58.1207C91.8029 57.3885 92.355 56.7127 92.878 55.9805C95.7836 51.6999 98.8925 47.5319 101.856 43.0823C102.466 42.2093 102.96 41.2518 103.512 40.2661C104.064 39.2805 104.268 38.9988 105.924 38.2385C105.75 39.5058 106.796 40.6886 105.924 41.984C105.662 42.322 105.924 43.0542 105.924 43.5893C105.59 45.6297 104.752 47.5618 103.483 49.2217C102.815 50.3481 102.205 51.5028 101.624 52.6574C101.106 54.064 100.261 55.336 99.154 56.3747C98.6019 56.7971 98.4857 57.7265 98.0499 58.3461C97.0039 59.8387 95.9578 61.3313 94.8247 62.7675C93.1685 64.8233 91.0765 64.8515 88.3744 63.9222C87.4079 63.6737 86.563 63.1023 85.9889 62.3088C85.4147 61.5152 85.1482 60.5506 85.2364 59.5852C85.2364 56.769 85.6723 53.7276 85.9047 50.7987C85.9549 50.424 85.8944 50.0432 85.7304 49.7004C84.7716 50.6016 83.8709 51.5309 82.8249 52.3758C81.3934 53.7363 79.8901 55.024 78.3212 56.2339C76.6941 57.3886 74.8637 58.2335 73.1785 59.3318C71.638 60.1257 69.88 60.4331 68.1503 60.2109C66.4207 59.9887 64.806 59.2481 63.5321 58.0926C62.1356 56.8535 61.1238 55.2612 60.6104 53.4949C60.0971 51.7286 60.1027 49.8585 60.6265 48.0951C61.6677 44.0547 63.4703 40.2357 65.9436 36.8304C66.5107 36.1632 67.1326 35.5417 67.8032 34.9718C69.6886 32.5903 71.9086 30.4764 74.3987 28.6916C76.0258 27.706 77.5949 26.6077 79.251 25.7065C79.9335 25.3119 80.7469 25.1883 81.5212 25.3615C82.2956 25.5347 82.9708 25.9913 83.4059 26.6358C84.3051 27.5597 84.8274 28.7687 84.8755 30.0379C84.9236 31.3072 84.4943 32.5502 83.6674 33.5355C81.0815 37.4218 78.3503 41.2518 75.5029 44.9692C74.1792 46.4348 72.7416 47.8 71.2027 49.0527C70.9304 49.2908 70.6389 49.5073 70.331 49.7004C69.6467 50.2739 68.8098 50.6494 67.9158 50.7839C67.0218 50.9183 66.1069 50.8064 65.2754 50.4608C64.6945 51.9718 64.5537 53.6086 64.8686 55.192C64.8686 55.4173 65.4206 55.727 65.7693 55.7833C67.5585 56.0268 69.3802 55.6796 70.9411 54.7977C72.4574 53.9836 73.8964 53.0412 75.2414 51.9815C78.9302 49.0727 82.3522 45.8596 85.4688 42.3783C85.9337 41.8432 86.5149 41.4208 86.9798 40.8576C87.419 40.3617 87.7545 39.7878 87.9676 39.1679C89.6529 32.8033 91.309 26.4105 92.9652 20.0459C92.9533 19.9054 92.9533 19.7641 92.9652 19.6235H87.7642C87.1541 19.6235 86.5439 19.6235 85.9337 19.7925L79.3091 20.3839C76.0549 20.6373 72.7717 20.8626 69.5175 21.0316C68.6723 21.0696 67.8268 20.9648 67.0187 20.7218C66.4316 20.5256 65.9132 20.1733 65.5228 19.7053C65.1323 19.2372 64.8855 18.6722 64.8105 18.0747C64.7107 17.4778 64.7107 16.8691 64.8105 16.2723C64.9848 14.5825 66.3504 13.7096 67.716 14.5544C69.2617 15.2746 70.9733 15.5947 72.6845 15.4837C75.067 15.4837 77.4496 15.4837 79.8031 15.2866C84.3357 15.1176 88.8683 14.8923 93.401 14.7515C93.6669 14.776 93.9334 14.711 94.1557 14.5674C94.3779 14.4238 94.5424 14.2103 94.6214 13.963C94.9991 12.8365 95.4349 11.7664 95.7836 10.6399C96.1322 9.51341 96.5389 9.09098 97.8174 9.31627C98.9212 9.54755 100.008 9.8486 101.072 10.2175C102.03 10.5273 102.234 11.175 101.711 12.048C101.188 12.921 100.897 13.4842 100.345 14.4699C101.624 14.4699 102.67 14.4699 103.687 14.4699H124.926C126.873 14.4699 128.849 14.4699 130.737 14.4699C131.696 14.4699 131.899 14.0475 132.045 13.3153C132.478 10.8636 133.406 8.51885 134.776 6.4156C135.517 5.09068 136.562 3.94912 137.832 3.07972C139.102 2.21032 140.562 1.6365 142.098 1.4028C142.963 1.21698 143.865 1.26877 144.701 1.55234C145.538 1.83591 146.277 2.34004 146.834 3.00804C147.493 3.64412 147.971 4.43521 148.221 5.30402C148.47 6.17282 148.483 7.08953 148.258 7.96447C148.048 8.95675 147.932 9.96527 147.909 10.9778C147.764 11.9635 147.357 12.9491 147.299 13.963C146.916 15.6549 146.185 17.2546 145.149 18.666C144.132 20.581 143.057 22.5242 141.865 24.2984C140.887 25.7236 139.83 27.0961 138.698 28.41C138.297 28.8051 138.043 29.318 137.974 29.8683C137.906 30.4186 138.028 30.9755 138.321 31.4515C138.96 32.916 139.425 34.4367 139.948 35.9293C140.877 38.4638 141.778 41.0266 142.679 43.5893C142.793 43.8236 142.939 44.0415 143.115 44.237C144.306 42.7162 145.381 41.4208 146.456 40.0691C147.531 38.7173 149.216 36.746 150.64 35.1407C151.308 34.4085 152.006 33.4228 152.877 33.2257C154.621 32.8032 155.173 31.198 156.596 30.4095C156.596 30.7756 156.596 30.9728 156.596 31.2544L157.497 30.6348C157.587 30.685 157.666 30.752 157.73 30.832C157.172 31.8021 156.561 32.7422 155.899 33.6482C153.604 36.6052 151.221 39.5058 148.926 42.4909C147.56 44.2651 146.282 46.152 145.061 48.1233C144.961 48.3404 144.909 48.5755 144.909 48.8133C144.909 49.0511 144.961 49.2862 145.061 49.5032C146.601 52.9108 148.199 56.2621 149.797 59.6134C150.429 60.6095 150.973 61.6551 151.425 62.7393C151.51 63.1176 151.504 63.5097 151.408 63.8856C151.313 64.2615 151.129 64.6112 150.873 64.9078C149.507 66.0342 148.722 66.4567 147.241 64.9078C145.107 62.6646 143.369 60.0956 142.098 57.3041C141.72 56.5719 141.4 55.8396 140.994 54.9666" fill="white"/>
<path d="M28.258 42.5191C26.7189 43.9565 25.5452 45.7206 24.8295 47.6727C24.4265 48.7075 23.9509 49.7143 23.4058 50.686C22.5341 52.2912 21.6043 53.8401 20.7036 55.4172C19.8029 56.9942 18.7859 58.9092 17.7981 60.5989C17.0426 61.8099 16.1129 62.9083 15.2703 64.0911C14.6678 65.1568 13.9779 66.1739 13.2073 67.1325C12.2943 68.1051 11.2126 68.9153 10.0112 69.5263C9.22656 69.7233 8.39592 69.6537 7.65776 69.3291C6.95328 69.0348 6.26473 68.7058 5.59481 68.3434C4.55784 67.8854 3.68274 67.142 3.07831 66.2057C2.47388 65.2693 2.1668 64.1814 2.19533 63.0772C1.86862 59.2211 2.35299 55.341 3.61906 51.6717C4.49072 48.8555 4.98464 46.0393 5.76913 43.3921C6.17591 41.8713 6.90231 40.4351 7.42531 38.9144C8.23886 36.5769 8.96525 34.1831 9.74975 31.8175C9.89125 31.4967 10.0563 31.1861 10.2437 30.8882L10.7667 29.8743L10.3308 29.6773C9.16863 31.7613 8.00641 33.8452 6.87325 35.9573C5.74009 38.0695 5.12991 37.9005 3.58998 36.5769C2.74737 35.8447 2.02099 34.9717 1.2365 34.155C0.999642 33.9055 0.868164 33.5788 0.868164 33.2397C0.868164 32.9006 0.999642 32.574 1.2365 32.3245C2.8636 29.7618 4.40353 27.1709 6.08874 24.6363C8.03545 21.6793 10.0693 18.7504 12.1904 15.8779C12.9051 14.9791 13.7932 14.2236 14.8054 13.6532C15.0686 13.5152 15.3632 13.4429 15.6625 13.4429C15.9618 13.4429 16.2564 13.5152 16.5197 13.6532C18.0886 14.9768 19.4252 16.4693 21.0232 17.9056C21.4058 18.1917 21.7002 18.574 21.8743 19.011C22.0485 19.4479 22.0958 19.9227 22.0111 20.3838C21.7868 21.0083 21.5248 21.6196 21.2266 22.2143C20.9157 23.319 20.4565 24.3795 19.861 25.3685C18.7569 26.7203 18.8441 28.4382 18.0596 29.7618C17.2386 31.437 16.5206 33.1578 15.9095 34.9153C15.2384 35.9054 14.7013 36.9749 14.3114 38.0976C14.1482 39.0626 13.8753 40.007 13.4979 40.9138C12.9592 42.0229 12.578 43.1976 12.3647 44.4059C12.3647 45.3915 11.3187 46.3209 12.0451 47.391C12.0451 47.391 12.0451 47.7572 12.0451 47.7853C10.6504 48.5457 11.4059 49.9538 11.0572 51.0239C10.9244 51.2985 10.7689 51.5622 10.5923 51.8125C10.4265 52.177 10.2905 52.5537 10.1856 52.9389C10.1801 53.3018 10.1214 53.6622 10.0112 54.0091C10.1926 54.9853 9.98496 55.9918 9.43014 56.8253C9.43014 58.2615 9.22673 59.6414 9.13957 61.0495C9.39951 60.8532 9.64245 60.6366 9.86595 60.4019C10.5652 59.4968 11.215 58.5568 11.8127 57.5857C13.7303 54.0373 15.5608 50.4889 17.4204 46.9405C18.5826 44.6876 19.7448 42.4628 20.936 40.238C22.4469 37.4218 23.8416 34.6056 25.5268 31.7894C27.212 28.9732 28.4323 26.6358 30.0304 24.1012C30.4953 23.369 31.0473 22.6931 31.5703 21.9891L36.9456 14.8641C37.8463 13.6532 38.3984 13.5687 39.4444 14.6107C40.4903 15.6527 42.1174 17.4269 43.3959 19.0039C43.6908 19.3672 43.8632 19.8097 43.8898 20.2712C43.867 20.6031 43.7346 20.9191 43.5121 21.1723C43.1344 21.6511 42.408 22.1017 42.3499 22.6086C42.1477 23.5738 41.59 24.4347 40.7809 25.0305C40.2631 25.5612 39.9457 26.246 39.8802 26.9737C39.8033 27.3764 39.6234 27.7541 39.3571 28.072C38.776 28.9169 37.7591 29.5646 38.1368 30.8882C38.2284 31.2715 38.1661 31.6743 37.9625 32.0147C36.2482 34.1268 37.0908 36.9994 35.6962 39.196C35.3834 39.6858 35.1759 40.2317 35.086 40.8012C35.086 41.1109 35.3475 41.4489 35.5509 41.8713C35.1408 42.2135 34.829 42.6527 34.6458 43.1461C34.4625 43.6396 34.414 44.1705 34.5049 44.6875C34.462 45.9981 34.277 47.3008 33.9529 48.5739C33.8173 49.8693 33.7301 51.1648 33.6914 52.4602C33.5895 54.0545 33.5895 55.6534 33.6914 57.2477C33.9677 58.3963 33.9677 59.5912 33.6914 60.7398C33.6914 61.2185 33.9238 61.8662 34.0401 62.4576L34.8245 65.9216C35.2022 67.6676 35.8124 68.09 37.5267 67.4423C39.8318 66.4198 41.7512 64.7268 43.0182 62.5985C45.5611 58.6403 47.6371 54.4177 49.207 50.0101C50.9066 45.4783 52.3232 40.8513 53.449 36.1545C54.351 33.013 55.021 29.8132 55.4538 26.5795C56.035 21.9891 56.2383 17.3705 56.616 12.752C56.616 11.5692 56.8194 10.3583 56.8485 9.17546C56.8485 8.61222 56.5289 8.02078 56.558 7.45754C56.7032 5.51437 56.9357 3.54309 57.1681 1.43095L58.8533 1.6562C58.8533 1.40275 58.8533 1.09297 58.9986 0.867676C59.7846 1.63951 60.4591 2.51111 61.0034 3.4586C61.6564 5.10806 62.0956 6.82965 62.3109 8.584C62.6596 11.1186 62.7177 13.6813 62.892 16.244C62.892 17.5113 63.0954 18.7786 63.0954 20.0177C63.0577 20.7934 62.9605 21.5653 62.8049 22.327C62.6596 23.4535 62.0785 24.5518 62.8049 25.6783C62.8329 25.7254 62.8477 25.7788 62.8477 25.8331C62.8477 25.8875 62.8329 25.941 62.8049 25.9881C61.7298 27.2835 62.4272 28.8042 62.369 30.1842C62.501 31.8134 62.0939 33.4411 61.2068 34.8309C61.1096 34.9772 61.0408 35.1394 61.0034 35.3097C60.7129 36.4924 60.4223 37.6752 60.1899 38.858C60.0977 39.4169 60.0492 39.9817 60.0446 40.5477C60.1154 41.0045 60.0819 41.4708 59.9463 41.9136C59.8108 42.3564 59.5765 42.765 59.2601 43.1105C58.708 43.6455 58.7952 44.8001 58.5337 45.645C58.2722 46.4899 57.9817 47.5318 57.633 48.4612C57.2843 49.3905 56.6451 50.9395 56.1802 52.2068C55.7153 53.474 55.3957 54.3752 55.0471 55.4735C55.0471 55.8396 55.0471 56.262 54.8437 56.6281C54.7912 56.9403 54.6934 57.2437 54.5531 57.5293C53.8849 58.7403 53.2166 59.9512 52.5193 61.134C51.5314 62.7674 50.4854 64.3727 49.6137 66.0061L48.9164 67.1888C48.519 68.0156 48.032 68.7992 47.4636 69.5263C46.5629 70.4275 45.4879 71.1597 44.5581 71.9763C43.489 72.8413 42.1825 73.3846 40.7991 73.5397C39.4158 73.6948 38.0158 73.4549 36.7712 72.8494C35.2387 72.0548 33.7633 71.161 32.3548 70.174C30.8598 68.904 29.8385 67.1916 29.4493 65.302C28.3078 61.5256 27.7496 57.6061 27.7931 53.6711C27.7931 50.3199 28.1708 46.9686 28.3742 43.6173C28.3742 43.3639 28.3742 43.0823 28.3742 42.6036" fill="white"/>
<path d="M196.314 20.4965C197.101 20.775 197.868 21.1043 198.61 21.4822C198.785 21.5943 198.931 21.7441 199.037 21.92C199.143 22.0958 199.206 22.2929 199.22 22.4959C198.871 23.8759 198.406 25.3122 197.942 26.6076C197.477 27.9031 197.215 28.8042 196.779 29.8743C195.908 32.1836 195.007 34.4929 194.048 36.774C193.554 37.9287 192.886 39.027 192.45 40.2098C190.968 44.0116 189.545 47.8135 188.121 51.6717C187.091 54.4634 186.417 57.367 186.116 60.3174C186.116 60.768 186.755 61.2749 187.191 61.8663C187.06 62.355 186.739 62.7752 186.294 63.038C185.849 63.3008 185.317 63.3856 184.808 63.2744C183.472 63.0209 182.135 62.8801 180.828 62.5985C180.644 62.5771 180.466 62.517 180.309 62.4225C180.151 62.328 180.016 62.2013 179.914 62.0512C179.811 61.9012 179.744 61.7314 179.716 61.5535C179.688 61.3757 179.701 61.1941 179.753 61.0215C180.086 58.7541 180.552 56.5069 181.148 54.2907C182.426 50.0946 183.879 45.8422 185.419 41.815C186.959 37.7879 188.586 34.1268 190.097 30.2687C190.852 28.3536 191.462 26.3823 192.101 24.4391C192.221 23.9868 192.299 23.525 192.334 23.0592C191.131 23.8171 189.976 24.6447 188.876 25.5375C186.319 27.8749 183.937 30.3813 181.351 32.6905C179.914 34.0542 178.565 35.5026 177.312 37.0275C177.118 37.3006 176.822 37.4908 176.487 37.559C176.152 37.6271 175.802 37.5679 175.511 37.3936C173.904 36.5896 172.677 35.2187 172.082 33.5636C171.588 32.4653 172.576 31.6205 173.041 30.7474C173.742 29.6766 174.539 28.6682 175.424 27.7341C175.627 27.5088 175.976 27.1709 176.179 27.199C177.98 27.537 178.126 25.6219 179.259 25.1432C179.259 23.2 181.293 22.8902 182.164 21.7356C182.901 21.1291 183.723 20.6266 184.605 20.243C185.075 19.8978 185.396 19.3961 185.506 18.8349C185.68 18.2717 186.639 17.9337 187.249 17.4831L192.014 13.8503C192.087 13.7679 192.176 13.7008 192.276 13.6532C193.089 13.2871 193.903 12.9773 194.658 12.583C196.242 11.8387 197.767 10.9821 199.22 10.0203C200.976 8.96105 202.847 8.09216 204.799 7.42933C208.137 6.1599 211.703 5.54725 215.288 5.62701C216.593 5.75657 217.869 6.08942 219.065 6.6127C221.021 7.42672 222.759 8.66497 224.144 10.2322C225.53 11.7994 226.525 13.6538 227.055 15.6526C228.006 18.2172 228.478 20.9255 228.45 23.6506C228.483 25.697 228.327 27.7422 227.985 29.7618C227.84 30.8601 226.968 31.902 226.939 32.9722C226.91 34.0423 225.864 35.1688 226.3 36.4361C226.328 36.6112 226.311 36.7903 226.25 36.9574C226.189 37.1246 226.086 37.2745 225.951 37.3936C224.702 38.154 224.905 39.5903 224.208 40.6041C223.51 41.6179 223.103 42.6317 222.522 43.6174C221.941 44.603 221.738 44.8565 221.418 45.5042C221.099 46.152 221.418 46.152 221.418 46.4899C221.418 46.8279 221.244 47.6727 221.012 47.729C219.588 48.1233 219.762 49.4469 219.239 50.3199C219.047 50.6055 218.812 50.8617 218.542 51.0802L216.479 52.7419C216.669 53.1589 216.706 53.6264 216.585 54.0669C216.463 54.5074 216.19 54.8944 215.811 55.1637C215.193 55.5882 214.619 56.0692 214.096 56.6C213.544 57.2196 213.079 57.9518 212.556 58.6277C212.556 58.6277 212.266 58.7684 212.15 58.8529C212.033 58.9374 211.452 59.219 211.481 59.2753C211.946 60.4018 210.871 60.599 210.319 61.1059L206.106 65.0767C205.894 65.3003 205.604 65.4407 205.293 65.471C204.479 65.3302 204.159 65.7808 203.927 66.3722C203.836 66.758 203.655 67.1184 203.398 67.4259C203.142 67.7335 202.815 67.98 202.445 68.1464C201.957 68.4495 201.517 68.8194 201.138 69.2447L200.557 69.6671C200.353 69.6671 199.917 69.8079 199.888 69.9487C199.54 71.4131 197.883 71.4132 196.983 72.3707C196.839 72.5303 196.645 72.6392 196.431 72.6804C194.397 72.6804 193.293 74.342 191.724 75.1305C191.055 75.5529 190.416 76.1725 189.806 74.7363C189.515 76.0599 188.963 76.5105 188.092 75.7782C187.54 76.2007 186.93 76.9892 186.668 76.8765C186.088 76.719 185.475 76.719 184.896 76.8765C184.177 77.0538 183.469 77.2701 182.775 77.5243C182.426 77.5243 181.816 77.6932 181.641 77.5243C180.683 76.5386 179.491 76.7921 178.329 76.7639C177.109 78.2565 176.266 76.7639 175.424 76.3696C174.109 75.8933 172.875 75.2289 171.763 74.3983C171.391 74.1773 171.066 73.8906 170.804 73.5534C170.426 72.8013 169.947 72.1007 169.38 71.4695C168.895 70.7333 168.68 69.8603 168.77 68.9912C168.825 68.0395 168.981 67.0959 169.235 66.175C169.346 65.8601 169.492 65.5579 169.671 65.2738C169.928 65.6634 170.22 66.0309 170.542 66.3722C170.542 66.3722 170.949 66.3721 171.152 66.2313L170.775 65.8652C170.669 65.8525 170.561 65.8525 170.455 65.8652C170.534 65.1106 170.69 64.3655 170.92 63.6405C170.92 63.3589 171.559 63.218 172.14 62.8801L171.734 64.7388H172.053C172.148 64.3451 172.275 63.959 172.431 63.5841C172.663 63.1054 172.809 62.7956 172.14 62.514C171.472 62.2324 171.879 61.7817 171.792 61.3875L172.14 61.2185L173.128 62.345L173.738 60.2047L172.809 60.6834H172.576C172.78 60.1311 173.064 59.6096 173.419 59.1346C174.239 58.3398 175.102 57.5878 176.005 56.8817C176.289 56.7038 176.591 56.553 176.905 56.4311L177.109 56.6845L175.772 58.9374L176.121 59.1628L177.981 57.5293L178.3 57.811L175.801 60.6271C176.063 62.0071 174.523 62.7393 173.797 63.8939C173.797 63.6686 173.942 63.4433 174 63.1899C174.058 62.9364 173.797 63.1899 173.767 63.1899C173.23 63.6367 172.805 64.1958 172.523 64.825C172.241 65.4543 172.11 66.1374 172.14 66.8228C172.276 67.9187 172.6 68.9848 173.099 69.9769C173.363 70.4476 173.761 70.8354 174.245 71.0948C174.728 71.3542 175.279 71.4743 175.83 71.4413C178.112 71.613 180.407 71.4994 182.658 71.1034C185.217 70.4271 187.691 69.4828 190.038 68.2872C192.085 67.3707 194.032 66.2574 195.85 64.9641C199.047 62.7375 202.121 60.3498 205.06 57.811C207.109 55.8371 209.049 53.7597 210.871 51.5872C214.354 47.7075 217.161 43.3034 219.181 38.5482C221.453 33.6929 222.698 28.4452 222.842 23.1155C222.866 21.2881 222.671 19.4641 222.261 17.6803C222.06 16.765 221.6 15.922 220.933 15.2455C220.266 14.5691 219.418 14.086 218.484 13.8503C216.911 13.5759 215.316 13.4438 213.719 13.456C213.385 13.4146 213.054 13.3487 212.731 13.2589C212.585 13.2589 212.382 13.118 212.237 13.2589C210.726 13.7939 209.331 14.3854 207.704 14.9486C207.152 15.1457 206.571 15.2021 206.048 15.3992L201.225 17.3142C200.737 17.532 200.279 17.8063 199.859 18.1309L196.373 20.5247" fill="white"/>
<path d="M262.474 57.3603H262.096C259.626 60.6834 257.214 64.0629 254.658 67.3296C252.333 70.4769 250.311 73.8233 248.614 77.3271C247.382 79.7624 246.576 82.3797 246.232 85.0716C245.941 87.0822 246.202 89.1316 246.987 91.0138C247.423 92.0839 247.655 92.1965 248.614 91.408C249.61 90.5685 250.507 89.624 251.287 88.5918C254.29 84.1109 256.591 79.2234 258.115 74.0885C259.568 69.8924 260.527 65.4991 261.66 61.1904C261.98 59.9513 262.212 58.7121 262.474 57.4448V57.3603ZM254.251 44.6593C253.957 44.9301 253.768 45.2902 253.715 45.6797C253.663 46.0692 253.749 46.4644 253.96 46.7996C253.96 47.0249 253.641 47.56 253.234 47.8698V53.305L254.6 52.4883C256.704 50.8215 258.443 48.7627 259.713 46.4335C260.992 44.3495 262.125 42.1529 263.549 40.1253C265.954 36.4007 267.656 32.2906 268.575 27.9875C268.779 27.1145 269.447 26.6639 270.115 26.8892C271.568 27.3398 273.253 27.5651 274.183 28.9168C274.426 29.2944 274.519 29.7449 274.444 30.1841C273.921 32.2118 273.311 34.2395 272.788 36.2671C272.41 37.6752 272.091 39.0832 271.742 40.5195L272.004 40.6604L281.214 32.5215L281.563 32.8596L279.326 35.3377L279.471 35.4786L280.691 34.8871C280.546 35.2814 280.517 35.5067 280.372 35.6194L277.059 38.7735C276.333 39.4775 275.665 40.2379 274.967 40.9701C274.27 41.7023 272.672 43.2231 271.626 44.434C271.236 44.9043 270.958 45.4525 270.812 46.0393C270.202 48.1514 269.65 50.2636 269.127 52.3757C268.982 52.9389 269.127 53.5585 269.127 54.1217C268.604 56.3465 267.994 58.5431 267.413 60.7679C266.512 64.3726 265.612 67.9492 264.682 71.5539C264.391 72.6241 264.101 73.7223 263.723 74.7643C263.345 75.8063 263.461 76.2851 262.415 76.3978C262.415 76.3978 262.154 77.0173 262.212 77.0454C263.142 77.496 262.503 78.2564 262.212 78.6507C261.021 81.4669 259.713 84.1141 258.377 86.8176C257.836 87.9284 257.184 88.9849 256.43 89.9718C255.258 91.6464 253.656 92.9956 251.781 93.8863C251.037 94.2609 250.218 94.475 249.381 94.5139C248.543 94.5528 247.707 94.4156 246.929 94.1116C246.667 93.9708 246.261 94.1116 245.999 93.9145C245.346 93.6724 244.738 93.3301 244.198 92.9006C243.384 92.2247 242.687 91.3799 241.902 90.6477C241.592 90.2996 241.421 89.8547 241.421 89.3944C241.421 88.9342 241.592 88.4893 241.902 88.1412C242.172 87.7265 242.346 87.2598 242.411 86.7735C242.476 86.2872 242.432 85.7929 242.28 85.325L241.525 86.198L240.914 85.8038C241.089 84.3394 241.176 82.8468 241.496 81.4106C241.841 79.959 242.308 78.5369 242.89 77.1581C244.729 72.5505 247.18 68.1955 250.183 64.2036L254.222 58.5713C254.222 58.4023 254.425 58.2334 254.6 57.9236L252.74 57.5575C252.023 57.4583 251.326 57.2492 250.677 56.9379C249.747 56.2902 249.37 56.6563 248.788 57.3885C247.77 58.876 246.592 60.2543 245.273 61.5001C244.631 62.1536 243.837 62.6481 242.957 62.9422C242.078 63.2362 241.138 63.3212 240.217 63.1898C238.851 63.0513 237.531 62.6332 236.344 61.9633C235.156 61.2933 234.13 60.3868 233.331 59.3035C232.104 57.2533 231.71 54.8331 232.227 52.5165C232.753 49.1597 233.73 45.884 235.132 42.7725C235.946 40.8575 236.73 38.9425 237.515 37.1401C237.625 36.8367 237.712 36.5261 237.776 36.2107C237.455 36.29 237.143 36.4034 236.847 36.5487C235.672 36.9963 234.365 36.9886 233.197 36.5272C232.028 36.0657 231.088 35.186 230.571 34.0705C230.188 33.2301 230.086 32.2944 230.28 31.3951C230.774 29.4801 231.559 27.6214 232.256 25.7627C232.692 24.5771 233.206 23.4201 233.796 22.2989C233.932 22.0641 234.115 21.8583 234.334 21.6937C234.554 21.5292 234.806 21.4093 235.074 21.3413C235.877 21.2697 236.686 21.38 237.438 21.6635C238.189 21.9469 238.862 22.3958 239.404 22.9747C239.927 23.4816 239.636 23.9604 239.404 24.4955C238.561 26.0162 237.747 27.5651 236.992 29.114C236.857 29.5053 236.779 29.9128 236.759 30.3249C238.023 30.1827 239.295 30.1357 240.566 30.1841C242.292 30.4861 243.906 31.2244 245.244 32.3245C245.447 32.4653 245.476 33.0567 245.244 33.3664C244.314 35.6757 243.152 37.9568 242.338 40.2942C240.564 44.2708 239.38 48.4712 238.822 52.7699C238.774 54.5273 238.93 56.2845 239.287 58.0081C239.578 59.5288 240.333 59.7541 241.437 58.5994C242.542 57.4448 244.081 55.4172 245.418 53.8401C247.307 51.3187 248.324 48.2824 248.324 45.1663C248.652 43.1159 249.138 41.092 249.776 39.1114C250.009 38.2102 250.154 37.2809 250.445 36.2952C250.735 35.3096 251.229 34.155 251.578 33.0848C251.841 32.0336 252.171 30.999 252.566 29.987C253.233 28.5271 254.103 27.1627 255.152 25.9317C255.367 25.683 255.636 25.4831 255.94 25.3459C256.243 25.2087 256.574 25.1376 256.909 25.1376C257.244 25.1376 257.575 25.2087 257.879 25.3459C258.183 25.4831 258.452 25.683 258.667 25.9317C260.643 27.5651 260.643 27.5651 258.958 29.4519C257.577 31.3127 256.535 33.3892 255.878 35.5912C255.312 37.0716 254.846 38.5862 254.483 40.1253C254.203 41.1217 254.009 42.139 253.902 43.1667C253.966 43.6709 254.103 44.1639 254.309 44.6312" fill="white"/>
<path d="M64.4494 105.193C65.8655 105.193 66.774 104.442 66.774 103.328C66.774 102.111 65.8655 101.477 64.4227 101.477H62.4989V105.193H64.4494ZM58.4375 98.1228H64.7433C68.4306 98.1228 70.822 99.9745 70.822 103.108C70.822 106.475 68.15 108.288 64.5295 108.288H62.4989V112.341H58.491L58.4375 98.1228Z" fill="white"/>
<path d="M75.5112 98.0837V112.302H87.4147V108.948H79.5325V106.695H86.5864V103.587H79.5325V101.412H87.3079V98.0837H75.5112Z" fill="white"/>
<path d="M99.2514 104.895C100.587 104.895 101.429 104.247 101.429 103.212C101.429 102.072 100.574 101.502 99.2247 101.502H96.5527V104.934L99.2514 104.895ZM92.478 98.0708H99.4117C100.274 98.004 101.141 98.1047 101.962 98.3671C102.783 98.6295 103.542 99.0482 104.194 99.5988C104.64 100.033 104.988 100.551 105.218 101.122C105.448 101.692 105.554 102.302 105.53 102.914C105.567 103.86 105.295 104.794 104.753 105.582C104.211 106.37 103.427 106.972 102.511 107.303L106.011 112.25H101.335L98.3162 107.99H96.5126V112.289H92.5047L92.478 98.0708Z" fill="white"/>
<path d="M110.527 98.0837V112.302H114.588V107.213H121.522V103.95H114.588V101.528H122.257V98.0837H110.527Z" fill="white"/>
<path d="M127.106 98.0837V112.302H138.997V108.948H131.128V106.695H138.168V103.587H131.128V101.412H138.903V98.0837H127.106Z" fill="white"/>
<path d="M143.472 105.193C143.457 104.21 143.648 103.235 144.032 102.325C144.416 101.416 144.985 100.591 145.707 99.9003C146.428 99.2096 147.286 98.6675 148.229 98.3064C149.172 97.9453 150.18 97.7727 151.194 97.799C152.403 97.7485 153.607 97.9922 154.694 98.5079C155.781 99.0236 156.718 99.7948 157.42 100.751L154.427 103.03C154.065 102.529 153.586 102.117 153.029 101.829C152.472 101.541 151.852 101.385 151.221 101.373C150.733 101.389 150.253 101.5 149.81 101.7C149.368 101.9 148.971 102.184 148.645 102.536C148.318 102.888 148.068 103.3 147.909 103.747C147.75 104.195 147.686 104.669 147.72 105.141C147.68 105.616 147.74 106.094 147.896 106.546C148.053 106.998 148.302 107.415 148.629 107.771C148.957 108.127 149.355 108.415 149.8 108.617C150.246 108.819 150.729 108.932 151.221 108.948C151.875 108.942 152.518 108.78 153.093 108.478C153.668 108.176 154.158 107.741 154.52 107.213L157.58 109.336C156.66 110.664 155.324 111.671 153.77 112.208C152.216 112.745 150.524 112.785 148.945 112.321C147.366 111.857 145.982 110.914 144.996 109.631C144.011 108.348 143.477 106.792 143.472 105.193Z" fill="white"/>
<path d="M161.467 98.0837V101.528H165.836V112.302H169.911V101.528H174.306V98.0837H161.467Z" fill="white"/>
<path d="M199.129 98.0837L195.642 103.587L192.142 98.0837H187.84V112.302H191.821V104.157L195.548 109.699H195.642L199.383 104.131V112.302H203.431V98.0837H199.129Z" fill="white"/>
<path d="M209.001 98.0837V112.302H220.905V108.948H213.023V106.695H220.063V103.587H213.023V101.412H220.798V98.0837H209.001Z" fill="white"/>
</svg>
