<svg width="82" height="94" viewBox="0 0 82 94" fill="none" xmlns="http://www.w3.org/2000/svg">
<path d="M19.1881 86.2263C16.4267 86.2167 14.1393 83.971 14.079 81.2102L12.8133 23.2121C12.7531 20.4513 14.9428 18.221 17.7042 18.2306L47.2594 18.3326C50.0208 18.3421 52.3082 20.5879 52.3685 23.3487L53.6342 81.3468C53.6944 84.1075 51.5047 86.3378 48.7433 86.3283L19.1881 86.2263Z" fill="white" stroke="#15161A" stroke-width="2"/>
<path d="M25.0523 81.7174C22.2909 81.7105 20.001 79.4669 19.9378 76.7062L19.4894 57.1382C19.4262 54.3775 21.6135 52.1451 24.3749 52.1519L43.1792 52.1988C45.9406 52.2057 48.2304 54.4493 48.2937 57.21L48.742 76.778C48.8052 79.5387 46.618 81.7711 43.8565 81.7642L25.0523 81.7174Z" stroke="#15161A" stroke-width="2"/>
<path d="M24.2813 48.0472C21.5199 48.0403 19.23 45.7967 19.1668 43.036L18.8149 27.6767C18.7516 24.916 20.9389 22.6835 23.7003 22.6904L42.5046 22.7373C45.266 22.7442 47.5558 24.9878 47.6191 27.7485L47.971 43.1078C48.0343 45.8685 45.847 48.101 43.0855 48.0941L24.2813 48.0472Z" stroke="#15161A" stroke-width="2"/>
<path d="M18.3715 85.4022C16.0711 86.9298 14.1443 85.9304 14.0679 83.1701L12.4336 24.1467C12.3571 21.3863 14.16 17.9103 16.4605 16.3827L29.6116 7.64973C31.9121 6.12214 33.8389 7.12151 33.9153 9.88188L35.5496 68.9052C35.6261 71.6656 33.8231 75.1417 31.5227 76.6692L18.3715 85.4022Z" fill="white" stroke="#15161A" stroke-width="2"/>
<mask id="path-5-outside-1" maskUnits="userSpaceOnUse" x="14.8627" y="42.9432" width="19.0469" height="38.1602" fill="black">
<rect fill="white" x="14.8627" y="42.9432" width="19.0469" height="38.1602"/>
<path fill-rule="evenodd" clip-rule="evenodd" d="M21.0609 70.0401L16.1055 69.3594L16.0782 68.3726L20.8176 61.2548L20.8477 62.3414L19.5983 64.2384L19.7243 68.7908L21.0322 69.004L21.0609 70.0401ZM19.1185 64.9613L16.7034 68.4728L19.2226 68.7212L19.1185 64.9613ZM27.112 72.4291L22.2748 75.6412L22.0956 69.171L22.5931 68.8406L22.7443 74.3018L24.3959 73.2051L24.2606 68.3199L24.7578 67.9898L24.893 72.875L26.5865 71.7504L26.4335 66.2251L26.9311 65.8947L27.112 72.4291ZM32.9988 68.5191L28.1613 71.7314L28.1334 70.7216L32.466 67.8446L32.3449 63.4693L32.8497 63.1341L32.9988 68.5191ZM27.9296 63.34L27.9576 64.3511L32.7946 61.1391L32.7666 60.128L27.9296 63.34ZM24.4018 61.6457L24.4687 64.0616L22.5045 65.3659L22.4373 62.9369C22.3971 61.4859 22.7289 60.2393 23.3238 59.8442C23.9602 59.4217 24.3644 60.2964 24.4018 61.6457ZM26.6779 56.6124L24.6793 59.6932C24.4031 58.9143 23.9039 58.4127 23.2878 58.8218C22.8944 59.0831 22.5625 59.5652 22.3398 60.1579C22.0505 60.9259 21.8999 62.0913 21.9305 63.1956L22.0279 66.7155L26.8686 63.5011L26.8406 62.4865L24.9596 63.7356L24.8784 60.8046L24.8701 60.5292L26.7082 57.705L26.6779 56.6124ZM18.5942 77.0516L18.48 72.928L18.978 72.6019L19.092 76.721L21.2017 75.3201L21.2297 76.3341L16.3887 79.5488L16.2033 72.8521L16.7086 72.5196L16.8658 78.1993L18.5942 77.0516ZM20.1662 56.0186C20.1285 54.6574 19.78 54.0257 19.2272 54.3928C18.7013 54.742 18.4197 55.7665 18.4631 57.3335L18.5365 59.9855L20.2446 58.8513L20.1662 56.0186ZM17.9839 57.8344C17.9501 56.6141 17.6295 55.964 17.0484 56.3499C16.5712 56.6668 16.2799 57.5796 16.3155 58.8642L16.3861 61.4135L18.0524 60.307L17.9839 57.8344ZM15.9226 62.7423L15.8217 59.1002C15.7933 58.0729 15.9222 57.1498 16.1855 56.4645C16.383 55.9548 16.6323 55.58 16.9581 55.3637C17.5875 54.9457 17.9321 55.4496 18.1178 56.045C18.2607 54.8643 18.5379 53.9395 19.2155 53.4896C20.0453 52.9386 20.6034 53.7536 20.6578 55.7191L20.7632 59.5278L15.9226 62.7423ZM32.1598 54.01C32.1255 52.7717 31.766 51.8969 31.2441 51.5614L31.5108 50.5887C32.1717 51.0046 32.6252 52.1084 32.6685 53.6722C32.7395 56.2365 31.6778 59.0605 30.2966 59.9777C28.9151 60.8951 27.7376 59.558 27.6666 56.9936C27.6223 55.3931 28.0194 53.6975 28.6596 52.4237L28.9624 53.0213C28.4555 54.0367 28.1405 55.3842 28.1757 56.6556C28.2323 58.6989 29.1695 59.7628 30.2704 59.0318C31.3698 58.3017 32.2164 56.0533 32.1598 54.01Z"/>
</mask>
<path fill-rule="evenodd" clip-rule="evenodd" d="M21.0609 70.0401L16.1055 69.3594L16.0782 68.3726L20.8176 61.2548L20.8477 62.3414L19.5983 64.2384L19.7243 68.7908L21.0322 69.004L21.0609 70.0401ZM19.1185 64.9613L16.7034 68.4728L19.2226 68.7212L19.1185 64.9613ZM27.112 72.4291L22.2748 75.6412L22.0956 69.171L22.5931 68.8406L22.7443 74.3018L24.3959 73.2051L24.2606 68.3199L24.7578 67.9898L24.893 72.875L26.5865 71.7504L26.4335 66.2251L26.9311 65.8947L27.112 72.4291ZM32.9988 68.5191L28.1613 71.7314L28.1334 70.7216L32.466 67.8446L32.3449 63.4693L32.8497 63.1341L32.9988 68.5191ZM27.9296 63.34L27.9576 64.3511L32.7946 61.1391L32.7666 60.128L27.9296 63.34ZM24.4018 61.6457L24.4687 64.0616L22.5045 65.3659L22.4373 62.9369C22.3971 61.4859 22.7289 60.2393 23.3238 59.8442C23.9602 59.4217 24.3644 60.2964 24.4018 61.6457ZM26.6779 56.6124L24.6793 59.6932C24.4031 58.9143 23.9039 58.4127 23.2878 58.8218C22.8944 59.0831 22.5625 59.5652 22.3398 60.1579C22.0505 60.9259 21.8999 62.0913 21.9305 63.1956L22.0279 66.7155L26.8686 63.5011L26.8406 62.4865L24.9596 63.7356L24.8784 60.8046L24.8701 60.5292L26.7082 57.705L26.6779 56.6124ZM18.5942 77.0516L18.48 72.928L18.978 72.6019L19.092 76.721L21.2017 75.3201L21.2297 76.3341L16.3887 79.5488L16.2033 72.8521L16.7086 72.5196L16.8658 78.1993L18.5942 77.0516ZM20.1662 56.0186C20.1285 54.6574 19.78 54.0257 19.2272 54.3928C18.7013 54.742 18.4197 55.7665 18.4631 57.3335L18.5365 59.9855L20.2446 58.8513L20.1662 56.0186ZM17.9839 57.8344C17.9501 56.6141 17.6295 55.964 17.0484 56.3499C16.5712 56.6668 16.2799 57.5796 16.3155 58.8642L16.3861 61.4135L18.0524 60.307L17.9839 57.8344ZM15.9226 62.7423L15.8217 59.1002C15.7933 58.0729 15.9222 57.1498 16.1855 56.4645C16.383 55.9548 16.6323 55.58 16.9581 55.3637C17.5875 54.9457 17.9321 55.4496 18.1178 56.045C18.2607 54.8643 18.5379 53.9395 19.2155 53.4896C20.0453 52.9386 20.6034 53.7536 20.6578 55.7191L20.7632 59.5278L15.9226 62.7423ZM32.1598 54.01C32.1255 52.7717 31.766 51.8969 31.2441 51.5614L31.5108 50.5887C32.1717 51.0046 32.6252 52.1084 32.6685 53.6722C32.7395 56.2365 31.6778 59.0605 30.2966 59.9777C28.9151 60.8951 27.7376 59.558 27.6666 56.9936C27.6223 55.3931 28.0194 53.6975 28.6596 52.4237L28.9624 53.0213C28.4555 54.0367 28.1405 55.3842 28.1757 56.6556C28.2323 58.6989 29.1695 59.7628 30.2704 59.0318C31.3698 58.3017 32.2164 56.0533 32.1598 54.01Z" fill="#15161A"/>
<path d="M16.1055 69.3594L15.7723 69.5807L15.7782 69.794L15.9292 69.8148L16.1055 69.3594ZM21.0609 70.0401L20.8845 70.4954L21.4149 70.5683L21.3941 69.8188L21.0609 70.0401ZM16.0782 68.3726L15.8835 68.1637L15.7391 68.3806L15.745 68.5939L16.0782 68.3726ZM20.8176 61.2548L21.1509 61.0335L21.1301 60.2841L20.6229 61.0458L20.8176 61.2548ZM20.8477 62.3414L21.0448 62.5467L21.1868 62.3312L21.1809 62.1201L20.8477 62.3414ZM19.5983 64.2384L19.4012 64.0331L19.2592 64.2486L19.2651 64.4597L19.5983 64.2384ZM19.7243 68.7908L19.3911 69.012L19.3969 69.2215L19.5437 69.2455L19.7243 68.7908ZM21.0322 69.004L21.3654 68.7827L21.3596 68.5732L21.2128 68.5493L21.0322 69.004ZM16.7034 68.4728L16.5158 68.2533L16.0818 68.8844L16.5336 68.9289L16.7034 68.4728ZM19.1185 64.9613L19.4517 64.74L19.4316 64.0138L18.931 64.7417L19.1185 64.9613ZM19.2226 68.7212L19.0529 69.1773L19.576 69.2289L19.5558 68.4999L19.2226 68.7212ZM22.2748 75.6412L21.9416 75.8625L21.9526 76.2624L22.2859 76.0411L22.2748 75.6412ZM27.112 72.4291L27.1231 72.8289L27.4563 72.6077L27.4453 72.2078L27.112 72.4291ZM22.0956 69.171L22.0846 68.7712L21.7513 68.9924L21.7624 69.3923L22.0956 69.171ZM22.5931 68.8406L22.9263 68.6194L22.9153 68.2195L22.582 68.4408L22.5931 68.8406ZM22.7443 74.3018L22.4111 74.5231L22.4222 74.9229L22.7554 74.7017L22.7443 74.3018ZM24.3959 73.2051L24.407 73.6049L24.7402 73.3837L24.7291 72.9838L24.3959 73.2051ZM24.2606 68.3199L24.2496 67.92L23.9163 68.1413L23.9274 68.5411L24.2606 68.3199ZM24.7578 67.9898L25.091 67.7685L25.0799 67.3686L24.7467 67.5899L24.7578 67.9898ZM24.893 72.875L24.5598 73.0963L24.5709 73.4961L24.9041 73.2748L24.893 72.875ZM26.5865 71.7504L26.5976 72.1503L26.9308 71.929L26.9197 71.5292L26.5865 71.7504ZM26.4335 66.2251L26.4224 65.8253L26.0892 66.0466L26.1003 66.4464L26.4335 66.2251ZM26.9311 65.8947L27.2643 65.6734L27.2533 65.2736L26.92 65.4948L26.9311 65.8947ZM28.1613 71.7314L27.8281 71.9527L27.8392 72.3525L28.1724 72.1313L28.1613 71.7314ZM32.9988 68.5191L33.0099 68.9189L33.3431 68.6977L33.332 68.2978L32.9988 68.5191ZM28.1334 70.7216L28.1223 70.3218L27.7891 70.5431L27.8001 70.9429L28.1334 70.7216ZM32.466 67.8446L32.4771 68.2444L32.8103 68.0231L32.7992 67.6233L32.466 67.8446ZM32.3449 63.4693L32.3338 63.0695L32.0006 63.2907L32.0116 63.6906L32.3449 63.4693ZM32.8497 63.1341L33.1829 62.9128L33.1718 62.513L32.8386 62.7342L32.8497 63.1341ZM27.9576 64.3511L27.6244 64.5724L27.6354 64.9722L27.9687 64.7509L27.9576 64.3511ZM27.9296 63.34L27.9185 62.9401L27.5853 63.1614L27.5964 63.5612L27.9296 63.34ZM32.7946 61.1391L32.8057 61.539L33.1389 61.3177L33.1278 60.9178L32.7946 61.1391ZM32.7666 60.128L33.0998 59.9067L33.0888 59.5069L32.7555 59.7281L32.7666 60.128ZM24.4687 64.0616L24.4798 64.4614L24.813 64.2401L24.8019 63.8403L24.4687 64.0616ZM24.4018 61.6457L24.0686 61.8669L24.4018 61.6457ZM22.5045 65.3659L22.1713 65.5871L22.1824 65.987L22.5156 65.7657L22.5045 65.3659ZM22.4373 62.9369L22.1041 63.1582L22.4373 62.9369ZM24.6793 59.6932L24.365 60.0251L24.5167 60.4529L24.8796 59.8935L24.6793 59.6932ZM26.6779 56.6124L27.0111 56.3911L26.9898 55.6223L26.4775 56.412L26.6779 56.6124ZM23.2878 58.8218L23.2767 58.422L23.2767 58.422L23.2878 58.8218ZM22.3398 60.1579L22.6256 60.1894L22.6259 60.1886L22.3398 60.1579ZM21.9305 63.1956L22.2637 62.9743L21.9305 63.1956ZM22.0279 66.7155L21.6947 66.9368L21.7058 67.3366L22.039 67.1154L22.0279 66.7155ZM26.8686 63.5011L26.8797 63.9009L27.2129 63.6796L27.2019 63.2798L26.8686 63.5011ZM26.8406 62.4865L27.1738 62.2653L27.1627 61.8654L26.8295 62.0867L26.8406 62.4865ZM24.9596 63.7356L24.6263 63.9569L24.6374 64.3567L24.9706 64.1354L24.9596 63.7356ZM24.8784 60.8046L25.2116 60.5833L25.2116 60.5822L24.8784 60.8046ZM24.8701 60.5292L24.6704 60.3278L24.5306 60.5426L24.5369 60.7516L24.8701 60.5292ZM26.7082 57.705L26.9079 57.9063L27.0472 57.6923L27.0414 57.4837L26.7082 57.705ZM18.48 72.928L18.4715 72.5265L18.1356 72.7464L18.1468 73.1492L18.48 72.928ZM18.5942 77.0516L18.6053 77.4514L18.9385 77.2301L18.9274 76.8303L18.5942 77.0516ZM18.978 72.6019L19.3112 72.3806L19.3002 71.9838L18.9694 72.2004L18.978 72.6019ZM19.092 76.721L18.7588 76.9422L18.7699 77.3421L19.1031 77.1208L19.092 76.721ZM21.2017 75.3201L21.5349 75.0988L21.5238 74.699L21.1906 74.9202L21.2017 75.3201ZM21.2297 76.3341L21.2408 76.734L21.574 76.5127L21.563 76.1129L21.2297 76.3341ZM16.3887 79.5488L16.0555 79.7701L16.0665 80.1699L16.3998 79.9487L16.3887 79.5488ZM16.2033 72.8521L16.1938 72.4512L15.8589 72.6716L15.8701 73.0734L16.2033 72.8521ZM16.7086 72.5196L17.0418 72.2983L17.0308 71.9004L16.6991 72.1187L16.7086 72.5196ZM16.8658 78.1993L16.5326 78.4205L16.5437 78.8204L16.8769 78.5991L16.8658 78.1993ZM20.1662 56.0186L19.8329 56.2399L20.1662 56.0186ZM18.5365 59.9855L18.2033 60.2068L18.2144 60.6066L18.5476 60.3854L18.5365 59.9855ZM20.2446 58.8513L20.2557 59.2511L20.5889 59.0299L20.5778 58.63L20.2446 58.8513ZM16.3155 58.8642L15.9823 59.0855L16.3155 58.8642ZM16.3861 61.4135L16.0528 61.6348L16.0639 62.0346L16.3971 61.8134L16.3861 61.4135ZM18.0524 60.307L18.0634 60.7069L18.3967 60.4856L18.3856 60.0857L18.0524 60.307ZM15.8217 59.1002L16.155 58.879L15.8217 59.1002ZM15.9226 62.7423L15.5893 62.9635L15.6004 63.3634L15.9336 63.1421L15.9226 62.7423ZM16.1855 56.4645L15.9026 56.4255L15.9017 56.4279L16.1855 56.4645ZM18.1178 56.045L17.8002 56.3667L18.447 55.904L18.1178 56.045ZM20.7632 59.5278L20.7743 59.9277L21.1075 59.7064L21.0965 59.3066L20.7632 59.5278ZM31.2441 51.5614L30.9349 51.6018L30.854 51.897L31.0041 51.9935L31.2441 51.5614ZM31.5108 50.5887L31.7496 50.1558L31.3929 49.9313L31.2016 50.6291L31.5108 50.5887ZM28.6596 52.4237L28.9613 52.0625L28.7469 51.6392L28.411 52.3076L28.6596 52.4237ZM28.9624 53.0213L29.2121 53.1353L29.3574 52.8442L29.2641 52.6601L28.9624 53.0213ZM15.9292 69.8148L20.8845 70.4954L21.2372 69.5848L16.2819 68.9041L15.9292 69.8148ZM15.745 68.5939L15.7723 69.5807L16.4387 69.1382L16.4114 68.1514L15.745 68.5939ZM20.6229 61.0458L15.8835 68.1637L16.2729 68.5816L21.0124 61.4637L20.6229 61.0458ZM21.1809 62.1201L21.1509 61.0335L20.4844 61.476L20.5145 62.5626L21.1809 62.1201ZM19.7954 64.4438L21.0448 62.5467L20.6506 62.136L19.4012 64.0331L19.7954 64.4438ZM20.0576 68.5695L19.9315 64.0172L19.2651 64.4597L19.3911 69.012L20.0576 68.5695ZM21.2128 68.5493L19.9049 68.3361L19.5437 69.2455L20.8516 69.4587L21.2128 68.5493ZM21.3941 69.8188L21.3654 68.7827L20.699 69.2253L20.7277 70.2614L21.3941 69.8188ZM16.8909 68.6924L19.3061 65.1808L18.931 64.7417L16.5158 68.2533L16.8909 68.6924ZM19.3924 68.2651L16.8731 68.0167L16.5336 68.9289L19.0529 69.1773L19.3924 68.2651ZM18.7853 65.1825L18.8894 68.9425L19.5558 68.4999L19.4517 64.74L18.7853 65.1825ZM22.2859 76.0411L27.1231 72.8289L27.101 72.0293L22.2637 75.2414L22.2859 76.0411ZM21.7624 69.3923L21.9416 75.8625L22.608 75.42L22.4289 68.9497L21.7624 69.3923ZM22.582 68.4408L22.0846 68.7712L22.1067 69.5708L22.6042 69.2405L22.582 68.4408ZM23.0776 74.0805L22.9263 68.6194L22.2599 69.0619L22.4111 74.5231L23.0776 74.0805ZM24.3848 72.8052L22.7333 73.902L22.7554 74.7017L24.407 73.6049L24.3848 72.8052ZM23.9274 68.5411L24.0627 73.4264L24.7291 72.9838L24.5939 68.0986L23.9274 68.5411ZM24.7467 67.5899L24.2496 67.92L24.2717 68.7197L24.7688 68.3896L24.7467 67.5899ZM25.2263 72.6537L25.091 67.7685L24.4245 68.211L24.5598 73.0963L25.2263 72.6537ZM26.5754 71.3506L24.882 72.4751L24.9041 73.2748L26.5976 72.1503L26.5754 71.3506ZM26.1003 66.4464L26.2533 71.9717L26.9197 71.5292L26.7667 66.0039L26.1003 66.4464ZM26.92 65.4948L26.4224 65.8253L26.4446 66.625L26.9422 66.2945L26.92 65.4948ZM27.4453 72.2078L27.2643 65.6734L26.5979 66.116L26.7788 72.6504L27.4453 72.2078ZM28.1724 72.1313L33.0099 68.9189L32.9877 68.1193L28.1502 71.3316L28.1724 72.1313ZM27.8001 70.9429L27.8281 71.9527L28.4945 71.5101L28.4666 70.5004L27.8001 70.9429ZM32.4549 67.4447L28.1223 70.3218L28.1444 71.1215L32.4771 68.2444L32.4549 67.4447ZM32.0116 63.6906L32.1328 68.0658L32.7992 67.6233L32.6781 63.248L32.0116 63.6906ZM32.8386 62.7342L32.3338 63.0695L32.3559 63.8692L32.8608 63.5339L32.8386 62.7342ZM33.332 68.2978L33.1829 62.9128L32.5165 63.3554L32.6656 68.7404L33.332 68.2978ZM28.2908 64.1298L28.2628 63.1187L27.5964 63.5612L27.6244 64.5724L28.2908 64.1298ZM32.7835 60.7393L27.9465 63.9513L27.9687 64.7509L32.8057 61.539L32.7835 60.7393ZM32.4334 60.3493L32.4614 61.3604L33.1278 60.9178L33.0998 59.9067L32.4334 60.3493ZM27.9407 63.7398L32.7777 60.5278L32.7555 59.7281L27.9185 62.9401L27.9407 63.7398ZM24.8019 63.8403L24.735 61.4244L24.0686 61.8669L24.1355 64.2828L24.8019 63.8403ZM22.5156 65.7657L24.4798 64.4614L24.4576 63.6617L22.4935 64.966L22.5156 65.7657ZM22.1041 63.1582L22.1713 65.5871L22.8378 65.1446L22.7705 62.7157L22.1041 63.1582ZM23.3127 59.4444C22.8265 59.7673 22.5099 60.4055 22.3345 61.0304C22.1573 61.6616 22.0831 62.4008 22.1041 63.1582L22.7705 62.7157C22.7513 62.022 22.8229 61.4124 22.9503 60.9587C23.0794 60.4988 23.2262 60.3162 23.3349 60.2441L23.3127 59.4444ZM24.735 61.4244C24.7153 60.7128 24.5989 60.0977 24.3853 59.712C24.1763 59.3347 23.8235 59.1052 23.3127 59.4444L23.3349 60.2441C23.4605 60.1607 23.628 60.1573 23.7895 60.449C23.9465 60.7324 24.0509 61.2293 24.0686 61.8669L24.735 61.4244ZM24.8796 59.8935L26.8783 56.8127L26.4775 56.412L24.4789 59.4928L24.8796 59.8935ZM23.2989 59.2217C23.4736 59.1057 23.6651 59.0949 23.8637 59.2392C24.0617 59.383 24.2365 59.6626 24.365 60.0251L24.9935 59.3613C24.8458 58.9448 24.6329 58.5843 24.3583 58.3848C24.0842 58.1858 23.7181 58.1289 23.2767 58.422L23.2989 59.2217ZM22.6259 60.1886C22.8029 59.7175 23.0411 59.3928 23.2989 59.2217L23.2767 58.422C22.7477 58.7733 22.3221 59.4129 22.0538 60.1272L22.6259 60.1886ZM22.2637 62.9743C22.2339 61.8978 22.3856 60.8264 22.6256 60.1894L22.0541 60.1264C21.7154 61.0254 21.5659 62.2849 21.5972 63.4169L22.2637 62.9743ZM22.3611 66.4942L22.2637 62.9743L21.5972 63.4169L21.6947 66.9368L22.3611 66.4942ZM26.8576 63.1012L22.0168 66.3157L22.039 67.1154L26.8797 63.9009L26.8576 63.1012ZM26.5073 62.7078L26.5354 63.7223L27.2019 63.2798L27.1738 62.2653L26.5073 62.7078ZM24.9706 64.1354L26.8516 62.8864L26.8295 62.0867L24.9485 63.3357L24.9706 64.1354ZM24.5452 61.0259L24.6263 63.9569L25.2928 63.5143L25.2116 60.5833L24.5452 61.0259ZM24.5369 60.7516L24.5452 61.0271L25.2116 60.5822L25.2033 60.3068L24.5369 60.7516ZM26.5085 57.5036L24.6704 60.3278L25.0698 60.7306L26.9079 57.9063L26.5085 57.5036ZM26.3447 56.8336L26.3749 57.9262L27.0414 57.4837L27.0111 56.3911L26.3447 56.8336ZM18.1468 73.1492L18.261 77.2728L18.9274 76.8303L18.8132 72.7067L18.1468 73.1492ZM18.9694 72.2004L18.4715 72.5265L18.4886 73.3295L18.9865 73.0034L18.9694 72.2004ZM19.4253 76.4997L19.3112 72.3806L18.6448 72.8232L18.7588 76.9422L19.4253 76.4997ZM21.1906 74.9202L19.081 76.3211L19.1031 77.1208L21.2127 75.7199L21.1906 74.9202ZM21.563 76.1129L21.5349 75.0988L20.8684 75.5414L20.8965 76.5554L21.563 76.1129ZM16.3998 79.9487L21.2408 76.734L21.2187 75.9343L16.3776 79.149L16.3998 79.9487ZM15.8701 73.0734L16.0555 79.7701L16.7219 79.3275L16.5365 72.6309L15.8701 73.0734ZM16.6991 72.1187L16.1938 72.4512L16.2127 73.2531L16.718 72.9205L16.6991 72.1187ZM17.199 77.978L17.0418 72.2983L16.3753 72.7409L16.5326 78.4205L17.199 77.978ZM18.5831 76.6517L16.8547 77.7994L16.8769 78.5991L18.6053 77.4514L18.5831 76.6517ZM19.2383 54.7927C19.3396 54.7254 19.4668 54.7066 19.5933 54.9284C19.7226 55.1552 19.8149 55.5886 19.8329 56.2399L20.4994 55.7974C20.4797 55.0874 20.379 54.5243 20.1864 54.1868C19.9911 53.8442 19.6676 53.6932 19.2161 53.993L19.2383 54.7927ZM18.7963 57.1122C18.7752 56.3496 18.8357 55.7649 18.9428 55.3588C19.0472 54.963 19.1607 54.8441 19.2383 54.7927L19.2161 53.993C18.7678 54.2907 18.4776 54.8587 18.3206 55.4542C18.1662 56.0394 18.1076 56.7504 18.1299 57.5547L18.7963 57.1122ZM18.8698 59.7642L18.7963 57.1122L18.1299 57.5547L18.2033 60.2068L18.8698 59.7642ZM20.2335 58.4514L18.5255 59.5857L18.5476 60.3854L20.2557 59.2511L20.2335 58.4514ZM19.8329 56.2399L19.9114 59.0726L20.5778 58.63L20.4994 55.7974L19.8329 56.2399ZM17.0595 56.7497C17.1817 56.6686 17.3072 56.6608 17.4263 56.8632C17.5503 57.074 17.6346 57.4751 17.6507 58.0557L18.3171 57.6131C18.2994 56.9733 18.2065 56.4393 18.0165 56.1165C17.8216 55.7852 17.4962 55.6453 17.0373 55.95L17.0595 56.7497ZM16.6487 58.6429C16.6317 58.0303 16.6951 57.5514 16.7939 57.221C16.8889 56.903 16.989 56.7965 17.0595 56.7497L17.0373 55.95C16.6306 56.2201 16.3464 56.7286 16.1854 57.2674C16.0281 57.7937 15.9636 58.4135 15.9823 59.0855L16.6487 58.6429ZM16.7193 61.1922L16.6487 58.6429L15.9823 59.0855L16.0528 61.6348L16.7193 61.1922ZM18.0413 59.9072L16.375 61.0137L16.3971 61.8134L18.0634 60.7069L18.0413 59.9072ZM17.6507 58.0557L17.7191 60.5283L18.3856 60.0857L18.3171 57.6131L17.6507 58.0557ZM15.4885 59.3215L15.5893 62.9635L16.2558 62.521L16.155 58.879L15.4885 59.3215ZM15.9017 56.4279C15.5877 57.2452 15.4592 58.2637 15.4885 59.3215L16.155 58.879C16.1273 57.8821 16.2567 57.0544 16.4693 56.5012L15.9017 56.4279ZM16.947 54.9638C16.4778 55.2754 16.1395 55.8143 15.9026 56.4255L16.4683 56.5035C16.6265 56.0953 16.7868 55.8846 16.9692 55.7635L16.947 54.9638ZM18.4355 55.7233C18.3363 55.4055 18.1866 55.0822 17.9565 54.9009C17.7189 54.7137 17.3849 54.673 16.947 54.9638L16.9692 55.7635C17.1607 55.6363 17.3137 55.6387 17.4522 55.7478C17.5981 55.8628 17.7136 56.0892 17.8002 56.3667L18.4355 55.7233ZM19.2044 53.0897C18.7424 53.3965 18.4087 53.8837 18.1853 54.449C17.9754 54.9804 17.8619 55.5803 17.7886 56.1861L18.447 55.904C18.5166 55.329 18.6132 54.8761 18.747 54.5375C18.8674 54.2327 19.011 54.0325 19.2266 53.8894L19.2044 53.0897ZM20.991 55.4979C20.9628 54.4809 20.8042 53.7156 20.5172 53.2787C20.2246 52.8333 19.7767 52.7097 19.2044 53.0897L19.2266 53.8894C19.484 53.7184 19.7301 53.7268 19.9376 54.0426C20.1506 54.3668 20.2983 54.9918 20.3246 55.9404L20.991 55.4979ZM21.0965 59.3066L20.991 55.4979L20.3246 55.9404L20.43 59.7491L21.0965 59.3066ZM15.9336 63.1421L20.7743 59.9277L20.7522 59.128L15.9115 62.3424L15.9336 63.1421ZM31.0041 51.9935C31.4566 52.2843 31.7944 53.0687 31.8266 54.2312L32.493 53.7887C32.4566 52.4748 32.0755 51.5094 31.4841 51.1292L31.0041 51.9935ZM31.2016 50.6291L30.9349 51.6018L31.5533 51.5209L31.8199 50.5483L31.2016 50.6291ZM33.0017 53.4509C32.9563 51.812 32.4813 50.6163 31.7496 50.1558L31.272 51.0216C31.862 51.393 32.294 52.4049 32.3352 53.8934L33.0017 53.4509ZM30.3076 60.3776C31.1494 59.8186 31.8483 58.7093 32.313 57.4737C32.7798 56.2325 33.039 54.7985 33.0017 53.4509L32.3352 53.8934C32.3689 55.1102 32.1328 56.3704 31.7412 57.4116C31.3475 58.4583 30.825 59.2196 30.2855 59.5779L30.3076 60.3776ZM27.3334 57.2149C27.3707 58.5626 27.6987 59.6067 28.2163 60.1942C28.7316 60.779 29.4658 60.9366 30.3076 60.3776L30.2855 59.5779C29.7458 59.9362 29.2006 59.8839 28.7641 59.3885C28.3298 58.8957 28.0335 57.989 27.9998 56.7724L27.3334 57.2149ZM28.411 52.3076C27.7005 53.7212 27.287 55.5378 27.3334 57.2149L27.9998 56.7724C27.9576 55.2484 28.3383 53.6739 28.9082 52.5399L28.411 52.3076ZM29.2641 52.6601L28.9613 52.0625L28.3578 52.785L28.6606 53.3826L29.2641 52.6601ZM28.5089 56.4343C28.4759 55.2396 28.7743 54.0122 29.2121 53.1353L28.7127 52.9073C28.1366 54.0611 27.8052 55.5287 27.8425 56.8768L28.5089 56.4343ZM30.2593 58.632C29.8598 58.8972 29.4448 58.8664 29.1053 58.4812C28.7681 58.0985 28.5354 57.3905 28.5089 56.4343L27.8425 56.8768C27.8726 57.9639 28.1368 58.8095 28.5576 59.2869C28.9761 59.7617 29.5801 59.8974 30.2814 59.4316L30.2593 58.632ZM31.8266 54.2312C31.853 55.1874 31.6671 56.1734 31.3627 56.9821C31.0563 57.7964 30.658 58.3672 30.2593 58.632L30.2814 59.4316C30.9822 58.9663 31.5569 58.0478 31.9345 57.0445C32.3141 56.0357 32.5231 54.8758 32.493 53.7887L31.8266 54.2312Z" fill="#15161A" mask="url(#path-5-outside-1)"/>
<path d="M81.9598 16.0263C81.9832 15.9498 81.9794 15.8733 81.9813 15.7968C81.985 15.7667 82 15.7412 82 15.7102C82 10.3564 76.6166 6 70.0005 6C63.3834 6 58 10.3555 58 15.7102C58 15.7412 58.015 15.7667 58.0178 15.7968C58.0215 15.8733 58.0168 15.9489 58.0402 16.0263L63.4592 33.5022L63.7716 41.1066C63.7706 41.1175 63.765 41.1257 63.765 41.1367C63.765 41.153 63.7734 41.1658 63.7744 41.1813L65.4691 82.4632C65.4691 82.4705 65.4738 82.476 65.4738 82.4823C65.5037 84.978 67.5201 87 69.9986 87C72.478 87 74.4954 84.978 74.5253 82.4823C74.5253 82.476 74.53 82.4705 74.53 82.4632L76.2256 41.2059C76.2275 41.1822 76.2406 41.1612 76.2406 41.1367C76.2406 41.1203 76.2312 41.1066 76.2303 41.0902L76.5427 33.5031L81.9598 16.0263ZM65.3625 34.2609H74.6375L74.3925 40.2249H65.6066L65.3625 34.2609ZM70.0005 7.82164C75.556 7.82164 80.078 11.3246 80.1248 15.6428L74.9172 32.4392H73.8875L76.5305 18.4217C76.6241 17.9272 76.2874 17.4526 75.7795 17.3616C75.2642 17.2705 74.7844 17.5984 74.6909 18.0929L71.9851 32.4392H70.9348V18.2578C70.9348 17.755 70.5167 17.347 69.9995 17.347C69.4823 17.347 69.0643 17.755 69.0643 18.2578V32.4392H68.0121L65.3091 18.0929C65.2166 17.5993 64.7368 17.2705 64.2205 17.3616C63.7126 17.4526 63.3769 17.9272 63.4695 18.4217L66.1116 32.4392H65.0828L59.8752 15.6428C59.922 11.3246 64.444 7.82164 70.0005 7.82164ZM69.9977 85.1775C68.5312 85.1775 67.3377 83.9433 67.3377 82.4259C67.3377 82.4195 67.334 82.4131 67.334 82.4067C67.334 82.4004 67.3368 82.3949 67.3368 82.3885L65.6804 42.0456H74.3167L72.6604 82.3894C72.6604 82.3958 72.6632 82.4013 72.6632 82.4077C72.6632 82.414 72.6594 82.4204 72.6594 82.4268C72.6594 83.9424 71.466 85.1775 69.9977 85.1775Z" fill="black"/>
</svg>
