<svg width="73" height="90" viewBox="0 0 73 90" fill="none" xmlns="http://www.w3.org/2000/svg">
<path d="M53.1106 25.2223C52.8883 25.4445 52.555 25.5556 52.3328 25.5556C51.9995 25.5556 51.7772 25.4445 51.555 25.2223C51.1106 24.7778 51.1106 24.1112 51.555 23.6667L56.9995 18.1112C57.4439 17.6667 58.1106 17.6667 58.555 18.1112C58.9995 18.5556 58.9995 19.2223 58.555 19.6667L53.1106 25.2223Z" fill="#15161A"/>
<path d="M46.3332 24.9999C46.111 25.2221 45.7777 25.3332 45.5554 25.3332C45.3332 25.3332 44.9999 25.2221 44.7777 24.9999C44.3332 24.5554 44.3332 23.8888 44.7777 23.4443L53.4443 14.7777C53.8888 14.3332 54.5554 14.3332 54.9999 14.7777C55.4443 15.2221 55.4443 15.8888 54.9999 16.3332L46.3332 24.9999Z" fill="#15161A"/>
<path d="M1 5.99999C1 3.23857 3.23857 1 6 1H64C66.7614 1 69 3.23858 69 6V36.7778H1V5.99999Z" stroke="#15161A" stroke-width="2"/>
<path d="M6.55566 11.5554C6.55566 8.79399 8.79424 6.55542 11.5557 6.55542H58.4446C61.206 6.55542 63.4445 8.794 63.4445 11.5554V26.2221C63.4445 28.9835 61.206 31.2221 58.4445 31.2221H11.5557C8.79424 31.2221 6.55566 28.9835 6.55566 26.2221V11.5554Z" stroke="#15161A" stroke-width="2"/>
<path d="M7 39C7 37.8954 7.89543 37 9 37H61C62.1046 37 63 37.8954 63 39C63 40.1046 62.1046 41 61 41H9C7.89543 41 7 40.1046 7 39Z" stroke="#15161A" stroke-width="2"/>
<path d="M7 51.4446C7 48.6832 9.23858 46.4446 12 46.4446H30C32.7614 46.4446 35 48.6832 35 51.4446V66.4446C35 69.206 32.7614 71.4446 30 71.4446H12C9.23858 71.4446 7 69.206 7 66.4446V51.4446Z" stroke="#15161A" stroke-width="2"/>
<path d="M39 51.4446C39 48.6832 41.2386 46.4446 44 46.4446H58C60.7614 46.4446 63 48.6832 63 51.4446V66.4446C63 69.206 60.7614 71.4446 58 71.4446H44C41.2386 71.4446 39 69.206 39 66.4446V51.4446Z" stroke="#15161A" stroke-width="2"/>
<path d="M1 71.7778C1 74.5393 3.23857 76.7778 6 76.7778H64C66.7614 76.7778 69 74.5393 69 71.7778V41.0001H1V71.7778Z" stroke="#15161A" stroke-width="2"/>
<circle cx="43.875" cy="51.8196" r="1.77498" stroke="#15161A" stroke-width="1.2"/>
<circle cx="43.875" cy="66.0691" r="1.77498" stroke="#15161A" stroke-width="1.2"/>
<circle cx="43.875" cy="58.9446" r="1.77498" stroke="#15161A" stroke-width="1.2"/>
<circle cx="58.125" cy="51.8196" r="1.77498" stroke="#15161A" stroke-width="1.2"/>
<circle cx="58.125" cy="66.0691" r="1.77498" stroke="#15161A" stroke-width="1.2"/>
<circle cx="58.125" cy="58.9446" r="1.77498" stroke="#15161A" stroke-width="1.2"/>
<circle cx="51" cy="51.8196" r="1.77498" stroke="#15161A" stroke-width="1.2"/>
<circle cx="51" cy="66.0691" r="1.77498" stroke="#15161A" stroke-width="1.2"/>
<circle cx="51" cy="58.9446" r="1.77498" stroke="#15161A" stroke-width="1.2"/>
<path d="M48 68.4446C48 65.6832 50.2386 63.4446 53 63.4446H67C69.7614 63.4446 72 65.6832 72 68.4446V83.4446C72 86.206 69.7614 88.4446 67 88.4446H53C50.2386 88.4446 48 86.206 48 83.4446V68.4446Z" fill="white" stroke="#15161A" stroke-width="2"/>
</svg>
