<svg width="54" height="58" viewBox="0 0 54 58" fill="none" xmlns="http://www.w3.org/2000/svg">
<circle cx="15.3538" cy="3.86457" r="2.86457" stroke="#15161A" stroke-width="2"/>
<circle cx="3.86457" cy="3.86457" r="2.86457" stroke="#15161A" stroke-width="2"/>
<circle cx="15.3538" cy="28.5145" r="2.86457" stroke="#15161A" stroke-width="2"/>
<circle cx="3.86457" cy="28.5145" r="2.86457" stroke="#15161A" stroke-width="2"/>
<circle cx="15.3538" cy="16.1895" r="2.86457" stroke="#15161A" stroke-width="2"/>
<circle cx="3.86457" cy="16.1895" r="2.86457" stroke="#15161A" stroke-width="2"/>
<circle cx="15.3538" cy="40.8397" r="2.86457" stroke="#15161A" stroke-width="2"/>
<circle cx="15.3538" cy="53.1646" r="2.86457" stroke="#15161A" stroke-width="2"/>
<circle cx="3.86457" cy="40.8397" r="2.86457" stroke="#15161A" stroke-width="2"/>
<circle cx="3.86457" cy="53.1646" r="2.86457" stroke="#15161A" stroke-width="2"/>
<circle cx="38.5413" cy="3.86457" r="2.86457" stroke="#15161A" stroke-width="2"/>
<circle cx="38.5413" cy="28.5145" r="2.86457" stroke="#15161A" stroke-width="2"/>
<circle cx="38.5413" cy="16.1895" r="2.86457" stroke="#15161A" stroke-width="2"/>
<circle cx="38.5413" cy="40.8397" r="2.86457" stroke="#15161A" stroke-width="2"/>
<circle cx="38.5413" cy="53.1646" r="2.86457" stroke="#15161A" stroke-width="2"/>
<circle cx="26.9476" cy="3.86457" r="2.86457" stroke="#15161A" stroke-width="2"/>
<circle cx="26.9476" cy="28.5145" r="2.86457" stroke="#15161A" stroke-width="2"/>
<circle cx="26.9476" cy="16.1895" r="2.86457" stroke="#15161A" stroke-width="2"/>
<circle cx="26.9476" cy="40.8397" r="2.86457" stroke="#15161A" stroke-width="2"/>
<circle cx="26.9476" cy="53.1646" r="2.86457" stroke="#15161A" stroke-width="2"/>
<circle cx="50.1346" cy="3.86457" r="2.86457" stroke="#15161A" stroke-width="2"/>
<circle cx="50.1346" cy="28.5145" r="2.86457" stroke="#15161A" stroke-width="2"/>
<circle cx="50.1346" cy="16.1895" r="2.86457" stroke="#15161A" stroke-width="2"/>
<circle cx="50.1346" cy="40.8397" r="2.86457" stroke="#15161A" stroke-width="2"/>
<circle cx="50.1346" cy="53.1646" r="2.86457" stroke="#15161A" stroke-width="2"/>
</svg>
