<svg width="30" height="20" viewBox="0 0 30 20" fill="none" xmlns="http://www.w3.org/2000/svg">
<path d="M20.0001 0H9.52393V20H20.0001V0Z" fill="#EBF7F7"/>
<path d="M9.52381 0H2.85714C1.28571 0 0 1.14286 0 2.7619V17.2381C0 18.8571 1.28571 20 2.85714 20H9.52381V0Z" fill="#359846"/>
<path d="M26.6667 0H20V20H26.6667C28.2381 20 29.5238 18.8571 29.5238 17.2381V2.7619C29.5238 1.14286 28.2381 0 26.6667 0Z" fill="#EF4C4C"/>
<path d="M26.6667 0H20V14.3333L26.5714 20C28.1429 20 29.5238 18.8571 29.5238 17.2381V2.7619C29.5238 1.14286 28.2381 0 26.6667 0Z" fill="#DD4545"/>
<path d="M20.0001 14.3333V0H9.52393V5.66667L20.0001 14.3333Z" fill="#E2F2F1"/>
<path d="M9.5236 0H2.85693L9.5236 5.66667V0Z" fill="#258933"/>
<path d="M20 19.9997H26.6667C28.2381 19.9997 29.5238 19.0473 29.5238 17.1426H20V19.9997Z" fill="#CC3E3E"/>
<path d="M20.0001 17.1426H9.52393V19.9997H20.0001V17.1426Z" fill="#D6EAE8"/>
<path d="M0 17.1426C0 19.0473 1.28571 19.9997 2.85714 19.9997H9.52381V17.1426H0Z" fill="#15721E"/>
<path d="M26.6667 0H20V5.04762L29.5238 8V2.7619C29.5238 1.14286 28.2381 0 26.6667 0Z" fill="#CC3E3E"/>
<path d="M20.0001 5.04762V0H9.52393V1.95238L20.0001 5.04762Z" fill="#D6EAE8"/>
<path d="M9.5236 0H2.85693L9.5236 1.95238V0Z" fill="#15721E"/>
</svg>
